HIERARCHY
ROOT root
{
	OFFSET 0.00 0.00 0.00
	CHANNELS 6 Xposition Yposition Zposition Zrotation Xrotation Yrotation
	JOINT lowerback
	{
		OFFSET 0 0 0
		CHANNELS 6 Xposition Yposition Zposition Zrotation Xrotation Yrotation
		JOINT upperback
		{
			OFFSET -0.214371 12.3768 -1.12219
			CHANNELS 6 Xposition Yposition Zposition Zrotation Xrotation Yrotation
			JOINT thorax
			{
				OFFSET -0.00137213 12.3873 0.296195
				CHANNELS 6 Xposition Yposition Zposition Zrotation Xrotation Yrotation
				JOINT lowerneck
				{
					OFFSET 0.0883157 12.5016 0.82912
					CHANNELS 6 Xposition Yposition Zposition Zrotation Xrotation Yrotation
					JOINT upperneck
					{
						OFFSET -1 10.1794 0.943522
						CHANNELS 6 Xposition Yposition Zposition Zrotation Xrotation Yrotation
						JOINT head
						{
							OFFSET 0.667525 10.2797 -1.57149
							CHANNELS 6 Xposition Yposition Zposition Zrotation Xrotation Yrotation
							End Site
							{
								OFFSET 0 0 0
							}
						}
					}
				}
				JOINT lclavicle
				{
					OFFSET 0.0883157 12.5016 0.82912
					CHANNELS 6 Xposition Yposition Zposition Zrotation Xrotation Yrotation
					JOINT lhumerus
					{
						OFFSET 20.61 4.45006 1.43784
						CHANNELS 6 Xposition Yposition Zposition Zrotation Xrotation Yrotation
						JOINT lradius
						{
							OFFSET 0 -30.3438 0
							CHANNELS 6 Xposition Yposition Zposition Zrotation Xrotation Yrotation
							JOINT lwrist
							{
								OFFSET 0 -18.964 0
								CHANNELS 6 Xposition Yposition Zposition Zrotation Xrotation Yrotation
								JOINT lhand
								{
									OFFSET 0 -9.48199 0
									CHANNELS 6 Xposition Yposition Zposition Zrotation Xrotation Yrotation
									JOINT lfingers
									{
										OFFSET 0 -3.17138 0
										CHANNELS 6 Xposition Yposition Zposition Zrotation Xrotation Yrotation
										End Site
										{
											OFFSET 0 -2.55685 0
										}
									}
								}
								JOINT lthumb
								{
									OFFSET 0 -9.48199 0
									CHANNELS 6 Xposition Yposition Zposition Zrotation Xrotation Yrotation
									End Site
									{
										OFFSET 0 -3.67114 0
									}
								}
							}
						}
					}
				}
				JOINT rclavicle
				{
					OFFSET 0.0883157 12.5016 0.82912
					CHANNELS 6 Xposition Yposition Zposition Zrotation Xrotation Yrotation
					JOINT rhumerus
					{
						OFFSET -20.61 4.45 1.44
						CHANNELS 6 Xposition Yposition Zposition Zrotation Xrotation Yrotation
						JOINT rradius
						{
							OFFSET 0 -29.5102 0
							CHANNELS 6 Xposition Yposition Zposition Zrotation Xrotation Yrotation
							JOINT rwrist
							{
								OFFSET 0 -19.2342 0
								CHANNELS 6 Xposition Yposition Zposition Zrotation Xrotation Yrotation
								JOINT rhand
								{
									OFFSET 0 -9.61712 0
									CHANNELS 6 Xposition Yposition Zposition Zrotation Xrotation Yrotation
									JOINT rfingers
									{
										OFFSET 0 -3.29215 0
										CHANNELS 6 Xposition Yposition Zposition Zrotation Xrotation Yrotation
										End Site
										{
											OFFSET 0 -2.557 0
										}
									}
								}
								JOINT rthumb
								{
									OFFSET 0 -9.61712 0
									CHANNELS 6 Xposition Yposition Zposition Zrotation Xrotation Yrotation
									End Site
									{
										OFFSET 0 -3.671 0
									}
								}
							}
						}
					}
				}
			}
		}
	}
	JOINT rfemur
	{
		OFFSET -8.46272 -9.62775 4.76248
		CHANNELS 6 Xposition Yposition Zposition Zrotation Xrotation Yrotation
		JOINT rtibia
		{
			OFFSET 1.00552e-005 -38.0331 0
			CHANNELS 6 Xposition Yposition Zposition Zrotation Xrotation Yrotation
			JOINT rfoot
			{
				OFFSET 1.14428e-005 -43.2815 0
				CHANNELS 6 Xposition Yposition Zposition Zrotation Xrotation Yrotation
				JOINT rtoes
				{
					OFFSET 0 -14.1868 -3.08763
					CHANNELS 6 Xposition Yposition Zposition Zrotation Xrotation Yrotation
					End Site
					{
						OFFSET 0 -7.27332 0
					}
				}
			}
		}
	}
	JOINT lfemur
	{
		OFFSET 9.10607 -9.62778 4.76249
		CHANNELS 6 Xposition Yposition Zposition Zrotation Xrotation Yrotation
		JOINT ltibia
		{
			OFFSET -1.01399e-005 -38.3535 0
			CHANNELS 6 Xposition Yposition Zposition Zrotation Xrotation Yrotation
			JOINT lfoot
			{
				OFFSET -1.12937e-005 -42.7176 0
				CHANNELS 6 Xposition Yposition Zposition Zrotation Xrotation Yrotation
				JOINT ltoes
				{
					OFFSET 0 -13.9965 -2.83857
					CHANNELS 6 Xposition Yposition Zposition Zrotation Xrotation Yrotation
					End Site
					{
						OFFSET 0 -7.16348 0
					}
				}
			}
		}
	}
}
MOTION
Frames: 4
Frame Time: 0.00833333
0.341091	90.8811	137.446	4.84737	-2.38514	-1.98869	0 0 0 -2.60186	-1.69707	-4.81876	-0.214371 12.3768 -1.12219 1.96396	7.71685	-6.93733	-0.00137213 12.3873 0.296195 2.35638	9.57272	-3.83158	0.0883157 12.5016 0.82912 2.83875	19.0524	-0.713776	-1 10.1794 0.943522 -1.30042	-11.7364	-0.428545	0.667525 10.2797 -1.57149 -0.79225	-6.69299	-0.214725	0.0883157 12.5016 0.82912 -15	0	-0	20.61 4.45006 1.43784 18.8148	-27.6617	-177.381	0 -30.3438 0 -0	59.292	-0	0 -18.964 0 -0	0	-88.4349	0 -9.48199 0 1.22245	4.37968	-2.58917e-014	0 -3.17138 0 -0	7.12502	-0	0 -9.48199 0 25	15	-1.36605e-015	0.0883157 12.5016 0.82912 15	0	-0	-20.61 4.45 1.44 -20.8013	18.6308	132.343	0 -29.5102 0 -0	13.7672	-0	0 -19.2342 0 2.38493e-015	-5.27076e-015	138.692	0 -9.61712 0 1.22	4.38	-0	0 -3.29215 0 -0	7.12502	-0	0 -9.61712 0 25	15	-7.97034e-015	-8.46272 -9.62775 4.76248 -2.4196	-37.7743	2.76626	1.00552e-005 -38.0331 0 -0	44.9079	-0	1.14428e-005 -43.2815 0 -29.0835	-70.2976	-30.5748	0 -14.1868 -3.08763 -0	-27.4379	-0	9.10607 -9.62778 4.76249 -9.69131	34.569	13.9855	-1.01399e-005 -38.3535 0 -0	-1.69063	-0	-1.12937e-005 -42.7176 0 -20.6536	-66.9829	-22.2715	0 -13.9965 -2.83857 -0	-27.0696	-0
0.317341	91.0493	138.28	5.19739	-2.25138	-1.53836	0 0 0 -2.53773	-1.74301	-4.79526	-0.214371 12.3768 -1.12219 2.0931	7.77781	-6.93066	-0.00137213 12.3873 0.296195 2.44844	9.67544	-3.83365	0.0883157 12.5016 0.82912 3.10847	18.8588	-0.592928	-1 10.1794 0.943522 -1.92123	-11.463	-0.299233	0.667525 10.2797 -1.57149 -1.05396	-6.57209	-0.108455	0.0883157 12.5016 0.82912 -15	0	-0	20.61 4.45006 1.43784 17.7414	-27.0702	-178.363	0 -30.3438 0 -0	58.0441	-0	0 -18.964 0 -0	0	-88.2513	0 -9.48199 0 1.22245	4.37968	-2.58917e-014	0 -3.17138 0 -0	7.12502	-0	0 -9.48199 0 25	15	-1.36605e-015	0.0883157 12.5016 0.82912 15	0	-0	-20.61 4.45 1.44 -20.3863	18.2301	132.297	0 -29.5102 0 -0	13.6182	-0	0 -19.2342 0 2.43732e-015	-5.31633e-015	139.259	0 -9.61712 0 1.22	4.38	-0	0 -3.29215 0 -0	7.12502	-0	0 -9.61712 0 25	15	-7.97034e-015	-8.46272 -9.62775 4.76248 -3.0105	-37.5872	2.57116	1.00552e-005 -38.0331 0 -0	45.4764	-0	1.14428e-005 -43.2815 0 -29.4971	-70.2374	-31.0106	0 -14.1868 -3.08763 -0	-25.9963	-0	9.10607 -9.62778 4.76249 -9.63273	34.5634	14.0103	-1.01399e-005 -38.3535 0 -0	-1.25334	-0	-1.12937e-005 -42.7176 0 -18.8139	-65.1311	-20.5821	0 -13.9965 -2.83857 -0	-26.454	-0
0.286486	91.2372	139.118	5.53667	-2.13058	-1.08398	0 0 0 -2.46125	-1.75737	-4.76135	-0.214371 12.3768 -1.12219 2.21928	7.83628	-6.91145	-0.00137213 12.3873 0.296195 2.53641	9.75436	-3.82886	0.0883157 12.5016 0.82912 3.38837	18.6335	-0.496569	-1 10.1794 0.943522 -2.53178	-11.1763	-0.198821	0.667525 10.2797 -1.57149 -1.30823	-6.44169	-0.0191118	0.0883157 12.5016 0.82912 -15	0	-0	20.61 4.45006 1.43784 16.7168	-26.4479	-179.317	0 -30.3438 0 -0	56.7163	-0	0 -18.964 0 -0	0	-88.1039	0 -9.48199 0 1.22245	4.37968	-2.58917e-014	0 -3.17138 0 -0	7.12502	-0	0 -9.48199 0 25	15	-1.36605e-015	0.0883157 12.5016 0.82912 15	0	-0	-20.61 4.45 1.44 -19.9863	17.8179	132.509	0 -29.5102 0 -0	13.5354	-0	0 -19.2342 0 2.471e-015	-5.34516e-015	139.621	0 -9.61712 0 1.22	4.38	-0	0 -3.29215 0 -0	7.12502	-0	0 -9.61712 0 25	15	-7.97034e-015	-8.46272 -9.62775 4.76248 -3.59274	-37.3103	2.33926	1.00552e-005 -38.0331 0 -0	45.9437	-0	1.14428e-005 -43.2815 0 -29.9259	-70.2217	-31.4547	0 -14.1868 -3.08763 -0	-24.5778	-0	9.10607 -9.62778 4.76249 -9.4707	34.2874	14.0172	-1.01399e-005 -38.3535 0 -0	-0.315975	-0	-1.12937e-005 -42.7176 0 -17.1564	-63.2856	-19.0656	0 -13.9965 -2.83857 -0	-25.7628	-0
0.246258	91.4382	139.966	5.85877	-2.03086	-0.620564	0 0 0 -2.36377	-1.72741	-4.71798	-0.214371 12.3768 -1.12219 2.34447	7.89547	-6.88215	-0.00137213 12.3873 0.296195 2.61789	9.8049	-3.81818	0.0883157 12.5016 0.82912 3.67359	18.3816	-0.424197	-1 10.1794 0.943522 -3.13005	-10.8865	-0.127411	0.667525 10.2797 -1.57149 -1.55384	-6.30624	0.0532152	0.0883157 12.5016 0.82912 -15	0	-0	20.61 4.45006 1.43784 15.7468	-25.8034	179.777	0 -30.3438 0 -0	55.3347	-0	0 -18.964 0 -0	0	-88.0066	0 -9.48199 0 1.22245	4.37968	-2.58917e-014	0 -3.17138 0 -0	7.12502	-0	0 -9.48199 0 25	15	-1.36605e-015	0.0883157 12.5016 0.82912 15	0	-0	-20.61 4.45 1.44 -19.6036	17.4062	133.011	0 -29.5102 0 -0	13.5401	-0	0 -19.2342 0 2.48006e-015	-5.35285e-015	139.718	0 -9.61712 0 1.22	4.38	-0	0 -3.29215 0 -0	7.12502	-0	0 -9.61712 0 25	15	-7.97034e-015	-8.46272 -9.62775 4.76248 -4.15832	-36.9437	2.07459	1.00552e-005 -38.0331 0 -0	46.322	-0	1.14428e-005 -43.2815 0 -30.3648	-70.2433	-31.9029	0 -14.1868 -3.08763 -0	-23.2004	-0	9.10607 -9.62778 4.76249 -9.18508	33.7031	14.0024	-1.01399e-005 -38.3535 0 -0	1.21045	-0	-1.12937e-005 -42.7176 0 -15.7557	-61.5061	-17.7978	0 -13.9965 -2.83857 -0	-25.0404	-0
